<svg xmlns="http://www.w3.org/2000/svg" viewBox="0 0 190 40">
  <defs>
    <radialGradient id="mrg-w" cx=".324" cy=".302" r=".723" gradientTransform="matrix(1.03 0 0 1 -.37 0)" gradientUnits="objectBoundingBox">
      <stop offset="0" stop-color="#b2e0f8"/>
      <stop offset=".02" stop-color="#a3daf6"/>
      <stop offset=".11" stop-color="#69c5f1"/>
      <stop offset=".19" stop-color="#3bb5ee"/>
      <stop offset=".26" stop-color="#1ba9eb"/>
      <stop offset=".32" stop-color="#07a2e9"/>
      <stop offset=".36" stop-color="#00a0e9"/>
      <stop offset=".51" stop-color="#009ce5"/>
      <stop offset=".66" stop-color="#0090da"/>
      <stop offset=".8" stop-color="#007cc9"/>
      <stop offset=".95" stop-color="#0062b1"/>
    </radialGradient>
  </defs>
  <!-- freeksマーク -->
  <g transform="translate(2, 2) scale(0.62)">
    <path d="M38.431 21.416a7.024 7.024 0 0 1-1.241 5.174c-3.144 4.65-14.076 2.837-16.792 13.823 3.487-9.354 14.455-8.667 17.925-13.305a4.968 4.968 0 0 0 .108-5.692Z" fill="#8a9ba8"/>
    <path d="M35.42 47.99c-3.319 1.506-.976 5.307 3.253 5.915 8.583 1.229 13.065-4.295 13.926-7.517.747 1.964-1.175 6.656-5.879 9.529a17.812 17.812 0 0 1-10.631 1.849s-6.976-1.674-7.584-4.593 1.422-5.554 2.711-5.825 3.765.024 4.2.638Z" fill="#c0c8ce"/>
    <path d="M22.8 15.981a.8.8 0 0 1 1.464.235c1.024 4.343.193 10.155-9.776 11.2-7.055.744-5.862 6.725 1.612 9.284a17.928 17.928 0 0 1-8.041-3.07c-4.9-3.518-5.023-11.571 7.879-13.522 3.686-.555 5.553-2.008 6.862-4.127Z" fill="url(#mrg-w)"/>
    <path d="M21.769.567a.462.462 0 0 0-.885.193c.1 6.541-1.319 7.746-9.957 10.987C1.59 15.246-.741 23.5 3.608 29.371a.233.233 0 0 0 .416-.187c-1.048-5.054 3.361-9.041 11.42-10.173 8.866-1.247 9-11.962 6.318-18.443Z" fill="url(#mrg-w)"/>
    <path d="M25.654 10.337a1.419 1.419 0 0 0 .777 1.4 11.276 11.276 0 0 1 5.169 6.009 14.446 14.446 0 0 1-4.862 17.094 18.427 18.427 0 0 0-1.283-33.472.611.611 0 0 0-.789.837 16.565 16.565 0 0 1 .988 8.132Z" fill="url(#mrg-w)"/>
    <path d="M38.582 21.771a.856.856 0 0 0-.855-.693A18.414 18.414 0 0 0 20 39.485c0 .313.012.6.03.885a.187.187 0 0 0 .367.042c3.132-9.6 13.781-9.228 17.07-13.643a6.549 6.549 0 0 0 1.114-5Z" fill="#c0c8ce"/>
  </g>
  <!-- Tech Bridge テキスト（白色） -->
  <text x="40" y="27" font-family="'Inter', 'Noto Sans JP', Arial, sans-serif" font-size="17" font-weight="700" fill="#ffffff" letter-spacing="-0.5">Tech Bridge</text>
</svg>
